<?xml version="1.0" encoding="utf-8"?>
<!-- Generator: Adobe Illustrator 16.0.1, SVG Export Plug-In . SVG Version: 6.00 Build 0)  -->
<!DOCTYPE svg PUBLIC "-//W3C//DTD SVG 1.1//EN" "http://www.w3.org/Graphics/SVG/1.1/DTD/svg11.dtd">
<svg version="1.1" id="Layer_1" xmlns="http://www.w3.org/2000/svg" xmlns:xlink="http://www.w3.org/1999/xlink" x="0px" y="0px"
	 width="56.199px" height="52.406px" viewBox="0 0 56.199 52.406" enable-background="new 0 0 56.199 52.406" xml:space="preserve">
<g opacity="0.3">
	<path fill="#FFFFFF" d="M23.772,5.46c-0.131-0.053-0.283-0.025-0.385,0.076L9.823,19.03H0.354C0.158,19.03,0,19.188,0,19.383
		v13.844c0,0.195,0.158,0.354,0.354,0.354h9.393l13.64,13.716c0.068,0.068,0.159,0.104,0.25,0.104c0.046,0,0.091-0.008,0.135-0.026
		c0.132-0.054,0.218-0.183,0.218-0.326V5.787C23.99,5.644,23.904,5.516,23.772,5.46z"/>
	<path fill="#FFFFFF" d="M31.365,17.091c-0.783-0.582-1.891-0.419-2.473,0.364c-0.582,0.783-0.419,1.89,0.363,2.472
		c2.019,1.499,3.175,3.797,3.175,6.306c0,2.477-1.134,4.758-3.108,6.256c-0.777,0.59-0.929,1.698-0.339,2.477
		c0.347,0.457,0.876,0.697,1.409,0.697c0.371,0,0.747-0.117,1.066-0.358c2.862-2.174,4.506-5.479,4.506-9.072
		C35.964,22.649,34.244,19.232,31.365,17.091z"/>
	<path fill="#FFFFFF" d="M36.94,8.562c-0.784-0.581-1.89-0.419-2.472,0.364c-0.582,0.783-0.42,1.89,0.363,2.472
		c4.756,3.534,7.483,8.954,7.483,14.87c0,5.841-2.672,11.218-7.329,14.751c-0.777,0.59-0.929,1.698-0.339,2.478
		c0.349,0.457,0.875,0.696,1.408,0.696c0.372,0,0.748-0.116,1.067-0.358c5.545-4.208,8.726-10.61,8.726-17.566
		C45.85,19.326,42.52,12.707,36.94,8.562z"/>
	<path fill="#FFFFFF" d="M43.141,0.349c-0.785-0.581-1.892-0.419-2.474,0.364c-0.582,0.783-0.418,1.89,0.365,2.472
		C48.425,8.678,52.664,17.104,52.664,26.3c0,9.079-4.151,17.437-11.393,22.933c-0.777,0.59-0.93,1.697-0.34,2.477
		c0.348,0.457,0.875,0.697,1.408,0.697c0.373,0,0.748-0.117,1.068-0.359c8.127-6.169,12.789-15.554,12.789-25.747
		C56.199,16.126,51.316,6.425,43.141,0.349z"/>
</g>
</svg>
